# xmcd CD database file
#
# Track frame offsets:
#	150
#	18437
#	40947
#	61985
#	80192
#	95725
#	108890
#	123725
#	138312
#	160487
#	187102
#	205147
#
# Disc length: 2946 seconds
#
# Revision: 0
# Processed by: cddbd v1.5.2PL0 Copyright (c) Steve Scherf et al.
# Submitted via: CDex 1.70beta2
#
DISCID=ae0b800c
DTITLE=Michael Krieger - Look Inside
DYEAR=1994
DGENRE=New Age
TTITLE0=Passin' It On
TTITLE1=Look Inside
TTITLE2=Daisies in the Garden
TTITLE3=People on Cigarette Billboards
TTITLE4=Beautiful Planet
TTITLE5=The Baby Song
TTITLE6=Four O'clock Winds
TTITLE7=Dance 110
TTITLE8=Payin' Dues
TTITLE9=Day Fades Away
TTITLE10=Good Friends
TTITLE11=Little One
EXTD=YEAR: 1994
EXTT0=
EXTT1=
EXTT2=
EXTT3=
EXTT4=
EXTT5=
EXTT6=
EXTT7=
EXTT8=
EXTT9=
EXTT10=
EXTT11=
PLAYORDER=
